<svg xmlns="http://www.w3.org/2000/svg" viewBox="0 0 200 200" width="600" height="600">
  <defs>
    <linearGradient id="bg" x1="0%" y1="0%" x2="100%" y2="100%">
      <stop offset="0%" style="stop-color:#8b5cf6"/>
      <stop offset="100%" style="stop-color:#5b21b6"/>
    </linearGradient>
    <pattern id="dots" x="0" y="0" width="20" height="20" patternUnits="userSpaceOnUse">
      <circle cx="10" cy="10" r="1.5" fill="rgba(255,255,255,0.08)"/>
    </pattern>
  </defs>
  <rect width="200" height="200" fill="url(#bg)"/>
  <rect width="200" height="200" fill="url(#dots)"/>
  <rect x="6" y="6" width="188" height="188" rx="20" fill="none" stroke="rgba(255,255,255,0.25)" stroke-width="2"/>
  
        <g fill="white" transform="translate(100,100)">
          <path d="M -25 -70 L -25 -30 L -60 50 Q -65 65 -50 65 L 50 65 Q 65 65 60 50 L 25 -30 L 25 -70 Z" 
                stroke="white" stroke-width="6" fill="rgba(255,255,255,0.2)"/>
          <rect x="-30" y="-78" width="60" height="12" rx="3"/>
          <path d="M -45 30 L 45 30 L 60 50 Q 65 65 50 65 L -50 65 Q -65 65 -60 50 Z" fill="white"/>
          <circle cx="-15" cy="45" r="6" fill="white" opacity="0.6"/>
          <circle cx="10" cy="55" r="4" fill="white" opacity="0.6"/>
        </g>
  <rect x="0" y="160" width="200" height="40" fill="rgba(0,0,0,0.35)"/>
  <text x="100" y="186" font-family="Arial,sans-serif" font-size="18" font-weight="bold" 
        fill="white" text-anchor="middle" letter-spacing="2">LABORATORIO</text>
</svg>